<?xml version="1.0" standalone="no"?>
<!DOCTYPE svg PUBLIC "-//W3C//DTD SVG 20010904//EN"
 "http://www.w3.org/TR/2001/REC-SVG-20010904/DTD/svg10.dtd">
<svg version="1.0" xmlns="http://www.w3.org/2000/svg"
 width="260.000000pt" height="260.000000pt" viewBox="0 0 260.000000 260.000000"
 preserveAspectRatio="xMidYMid meet">
<metadata>
Created by potrace 1.11, written by Peter Selinger 2001-2013
</metadata>
<g transform="translate(0.000000,260.000000) scale(0.100000,-0.100000)"
fill="#000000" stroke="none">
<path d="M590 2344 c-94 -36 -135 -81 -139 -152 -2 -46 15 -100 41 -133 7 -9
92 -80 188 -159 96 -78 195 -159 220 -180 25 -21 65 -54 90 -74 25 -20 52 -42
60 -49 8 -8 42 -35 75 -62 33 -26 64 -51 68 -55 5 -4 -2 -19 -15 -33 -13 -13
-52 -57 -87 -97 -36 -39 -78 -86 -95 -104 -17 -18 -65 -70 -106 -117 -40 -46
-84 -95 -97 -109 -13 -14 -41 -44 -62 -67 -30 -33 -44 -41 -62 -37 -13 3 -28
6 -34 7 -5 2 -14 5 -20 8 -5 4 -23 10 -40 14 -45 12 -45 12 -47 15 -2 1 -10 3
-18 5 -8 1 -35 8 -60 15 -25 7 -61 13 -82 15 -20 2 -41 6 -47 10 -6 3 -11 1
-11 -5 0 -6 -4 -8 -10 -5 -16 10 -87 -14 -95 -33 -15 -32 -14 -44 7 -81 21
-38 76 -94 137 -139 20 -15 41 -31 47 -37 6 -5 32 -26 57 -45 51 -38 50 -35
32 -140 -8 -46 32 -63 106 -44 l46 11 79 -100 c43 -55 95 -116 114 -136 35
-36 90 -77 90 -66 0 3 9 1 20 -5 16 -9 24 -7 42 10 27 25 30 38 30 120 0 75
-4 97 -37 202 -14 42 -26 86 -28 97 -2 11 -6 24 -10 27 -18 19 -1 47 65 105
117 105 147 132 189 171 22 20 79 72 126 115 48 43 94 85 103 93 9 8 28 25 42
38 l26 23 23 -24 c13 -13 35 -39 49 -57 14 -18 30 -38 35 -44 30 -33 105 -125
105 -128 0 -3 15 -22 34 -44 44 -50 194 -231 226 -273 13 -18 33 -43 45 -55
11 -13 29 -34 41 -47 51 -58 100 -81 161 -75 65 6 104 34 135 94 39 77 33 139
-23 257 -23 50 -42 93 -41 98 1 4 -3 7 -9 7 -5 0 -7 5 -4 10 3 6 1 10 -4 10
-6 0 -10 3 -9 8 1 4 -24 61 -56 127 -32 66 -78 161 -101 210 -23 50 -68 143
-99 209 l-57 119 56 81 c111 159 127 181 143 202 34 40 85 140 105 204 21 68
7 126 -37 149 -25 13 -92 22 -100 13 -4 -3 -13 -7 -21 -8 -42 -6 -158 -74
-312 -182 l-172 -121 -138 65 c-76 36 -174 83 -218 104 -44 21 -156 75 -250
120 -93 45 -194 93 -224 107 -53 24 -150 39 -181 27z"/>
</g>
</svg>
